<svg id="Layer_1" enable-background="new 0 0 512.002 512.002" height="512" viewBox="0 0 512.002 512.002" width="512" xmlns="http://www.w3.org/2000/svg"><g><g><path d="m341.266 292.008c-9.114-3.672-18.566-4.189-26.269-1.806-3.464-4.081-7.88-7.513-13.1-10.068-10.284-5.032-21.875-5.902-31.427-2.777-5.013-5.494-11.798-9.586-19.873-11.675-6.216-1.607-12.348-1.803-17.843-.763l-1.285-59.083c-.22-10.13-4.464-19.087-11.129-25.237 16.416-19.672 25.66-44.838 25.66-70.599 0-60.654-49.345-110-110-110-12.254 0-24.302 2.008-35.808 5.968-5.222 1.797-7.999 7.488-6.201 12.71 1.797 5.222 7.487 8 12.71 6.201 9.407-3.237 19.265-4.879 29.299-4.879 49.626 0 90 40.374 90 90 0 23.034-9.037 45.483-24.89 62.123-.89-.073-1.787-.121-2.697-.121-14.232 0-26.391 9.311-31.04 22.33-10.059 3.748-20.594 5.668-31.373 5.668-49.626 0-90-40.374-90-90 0-10.032 1.641-19.888 4.877-29.293 1.797-5.222-.98-10.913-6.203-12.709-5.223-1.797-10.913.98-12.709 6.203-3.958 11.504-5.965 23.549-5.965 35.8 0 60.654 49.346 110 110 110 9.996 0 19.824-1.338 29.354-3.983v114.29c-9.586 4.045-17.378 8.516-23.883 21.982-6.598 13.658-12.586 41.022-6.669 56.875 8.479 22.72 19.111 35.625 27.654 45.994 11.076 13.444 18.393 22.326 18.6 46.928.046 5.49 4.509 9.916 10 9.916h145.378c5.503 0 9.972-4.447 10-9.95.061-12.189 5.713-29.396 11.179-46.037 6.002-18.273 12.208-37.167 12.208-52.638v-67.646c.001-20.172-10.674-36.518-28.555-43.724zm8.556 111.369c0 12.27-5.699 29.619-11.21 46.396-4.714 14.353-9.556 29.095-11.401 42.229h-126.632c-2.269-24.778-12.22-36.857-22.686-49.561-8.379-10.171-17.044-20.688-24.353-40.271-3.275-8.775.529-29.979 5.94-41.183 1.862-3.855 3.583-6.227 5.874-8.06v30.106c0 5.523 4.477 10 10 10s10-4.477 10-10v-176.979c0-7.748 5.858-14.052 13.059-14.052 7.03 0 12.889 6.401 13.06 14.269l2.306 106.028c.12 5.521 4.716 9.931 10.215 9.78 5.521-.12 9.9-4.693 9.78-10.215l-.57-26.232c2.212-1.198 6.759-2.041 12.385-.586 4.344 1.124 14.448 5.074 14.448 17.465 0 5.523 4.477 10 10 10s10-4.477 10-10c0-2.325-.198-4.593-.583-6.79 4.185-.577 9.234.217 13.651 2.379 3.958 1.937 10.599 6.589 10.599 15.985 0 5.523 4.477 10 10 10s10-4.477 10-10c0-1.784-.122-3.541-.361-5.26 2.789-.255 6.501.144 10.446 1.734 4.82 1.943 16.032 8.285 16.032 25.173v67.645z"/><path d="m376.002 0c-60.654 0-110 49.346-110 110s49.346 110 110 110 110-49.346 110-110-49.346-110-110-110zm0 200c-49.626 0-90-40.374-90-90s40.374-90 90-90 90 40.374 90 90c-.001 49.626-40.374 90-90 90z"/><path d="m418.428 110 7.071-7.071c11.696-11.697 11.696-30.729 0-42.427-11.696-11.697-30.729-11.697-42.427 0l-7.071 7.071-7.071-7.071c-11.697-11.696-30.729-11.696-42.427 0-11.697 11.697-11.697 30.729 0 42.427l7.071 7.071-7.071 7.071c-11.697 11.697-11.697 30.73 0 42.427 5.849 5.848 13.531 8.772 21.213 8.772s15.365-2.924 21.213-8.772l7.071-7.071 7.071 7.071c11.697 11.696 30.729 11.697 42.427 0 11.697-11.697 11.697-30.73 0-42.427zm-7.071 35.355c-3.898 3.9-10.243 3.899-14.142 0l-14.142-14.142c-1.953-1.953-4.512-2.929-7.071-2.929s-5.119.976-7.071 2.929l-14.142 14.142c-1.873 1.873-4.384 2.905-7.071 2.905s-5.198-1.031-7.071-2.905c-1.874-1.873-2.905-4.384-2.905-7.071s1.032-5.198 2.905-7.071l14.142-14.142c3.905-3.905 3.905-10.237 0-14.143l-14.142-14.142c-3.899-3.899-3.899-10.243 0-14.142 3.898-3.899 10.243-3.899 14.142 0l14.142 14.142c3.905 3.905 10.237 3.905 14.143 0l14.142-14.142c3.9-3.899 10.244-3.899 14.143 0s3.899 10.244 0 14.142l-14.142 14.142c-3.905 3.905-3.905 10.237 0 14.143l14.142 14.142c3.897 3.899 3.897 10.244-.002 14.142z"/><path d="m77.432 129.716 25.902 25.902c5.666 5.666 13.199 8.786 21.212 8.786s15.546-3.121 21.212-8.786l48.812-48.812c11.695-11.696 11.695-30.727 0-42.423-5.666-5.666-13.199-8.786-21.212-8.786s-15.546 3.121-21.211 8.786l-27.601 27.6-4.69-4.69c-11.696-11.696-30.727-11.695-42.424 0-11.696 11.696-11.696 30.727 0 42.423zm14.142-28.281c1.95-1.949 4.509-2.924 7.07-2.924 2.56 0 5.121.975 7.069 2.924l11.761 11.761c3.905 3.905 10.237 3.905 14.143 0l34.671-34.671c1.888-1.889 4.399-2.928 7.069-2.928s5.181 1.04 7.069 2.928c3.898 3.898 3.898 10.241 0 14.139l-48.812 48.812c-1.888 1.888-4.398 2.928-7.069 2.928-2.67 0-5.181-1.04-7.069-2.928l-25.902-25.902c-3.898-3.899-3.898-10.241 0-14.139z"/><path d="m65.283 49.291c2.721 0 5.432-1.104 7.406-3.275 3.715-4.086 3.414-10.411-.673-14.126-4.086-3.715-10.411-3.413-14.126.673l-.005.005c-3.715 4.086-3.411 10.408.675 14.123 1.916 1.742 4.323 2.6 6.723 2.6z"/></g></g></svg>