<svg height="512" viewBox="0 0 128 128" width="512" xmlns="http://www.w3.org/2000/svg"><g><g><rect fill="#ffb400" height="8" rx="4" width="76.25" x="22.104" y="1.729"/><path d="m87.061 39.475c-9.848.35-17.51 8.742-17.51 18.6v36.065a18.173 18.173 0 0 0 18.173 18.173 18.172 18.172 0 0 0 18.176-18.173v-36.5a18.173 18.173 0 0 0 -18.839-18.165zm8.839 54.665a8.173 8.173 0 1 1 -16.345 0v-36.217a8.364 8.364 0 0 1 7.614-8.441 8.181 8.181 0 0 1 8.731 8.153z" fill="#ffb400"/><path d="m87.724 112.313a18.173 18.173 0 0 1 -18.173-18.173v-38.235a63.27 63.27 0 0 1 20.016-46.176h-58.676a63.27 63.27 0 0 1 20.016 46.176v42.871a27.495 27.495 0 1 0 54.989 0v-4.636a18.172 18.172 0 0 1 -18.172 18.173z" fill="#ffe600"/><path d="m34.985 56.199h15.922v9.78h-15.922z" fill="#4f4c5f"/><g fill="#8cd96b"><rect height="22.25" rx="4.312" width="8.625" x="26.36" y="49.964"/><g><path d="m79.551 63.151h16.345v6.911h-16.345z"/><path d="m79.551 81.714h16.345v6.911h-16.345z"/></g></g></g><g><path d="m49.5 3.479h3.25a1.75 1.75 0 0 0 0-3.5h-3.25a1.75 1.75 0 0 0 0 3.5z"/><path d="m87.049 47.736a10.1 10.1 0 0 0 -9.249 10.187v36.217a9.923 9.923 0 1 0 19.845 0v-36.505a9.955 9.955 0 0 0 -3.145-7.244 9.85 9.85 0 0 0 -7.451-2.655zm7.1 32.227h-12.849v-8.151h12.846zm0 6.912h-12.849v-3.412h12.846zm0-18.563h-12.849v-3.412h12.846zm-6.422 32.251a6.43 6.43 0 0 1 -6.427-6.423v-3.765h12.846v3.765a6.429 6.429 0 0 1 -6.422 6.423zm6.422-42.928v3.765h-12.849v-3.477a6.592 6.592 0 0 1 5.98-6.695c.15-.01.3-.015.446-.015a6.432 6.432 0 0 1 6.419 6.422z"/><path d="m101.586 43.327a1.75 1.75 0 1 0 -2.436 2.513 16.292 16.292 0 0 1 5 11.8v36.5a16.423 16.423 0 1 1 -32.845 0v-36.069c0-8.979 7.1-16.537 15.822-16.847a1.75 1.75 0 1 0 -.125-3.5 19.769 19.769 0 0 0 -14.76 7.633 61.755 61.755 0 0 1 18.047-33.88h4.069a5.75 5.75 0 1 0 0-11.5h-29.275a1.75 1.75 0 0 0 0 3.5h29.271a2.25 2.25 0 0 1 0 4.5h-68.254a2.25 2.25 0 0 1 0-4.5h11.067a1.75 1.75 0 0 0 0-3.5h-11.067a5.75 5.75 0 0 0 0 11.5h4.069a61.73 61.73 0 0 1 18.946 42.97h-12.381v-.173a6.063 6.063 0 0 0 -12.125 0v13.626a6.063 6.063 0 1 0 12.125 0v-.172h12.423v31.048a29.287 29.287 0 0 0 29.2 29.245h.043a29.244 29.244 0 0 0 29.244-29.245v-41.14a19.761 19.761 0 0 0 -6.058-14.309zm-68.352 24.573a2.563 2.563 0 1 1 -5.125 0v-13.624a2.563 2.563 0 0 1 5.125 0zm3.5-3.672v-6.28h12.423v6.28zm66 43a25.788 25.788 0 0 1 -24.332 17.3h-.04a25.782 25.782 0 0 1 -25.7-25.745v-42.878a65.274 65.274 0 0 0 -17.552-44.426h50.238a65.274 65.274 0 0 0 -17.548 44.426v38.235a19.914 19.914 0 0 0 34.933 13.085z"/></g></g></svg>