<?xml version="1.0"?>
<svg xmlns="http://www.w3.org/2000/svg" width="512" height="512" viewBox="0 0 128 128">
<g><path fill="current" stroke="current" stroke-width="2" d="M101.558,43.3a19.686,19.686,0,0,0-29.32,2.06,61.755,61.755,0,0,1,18.047-33.88h4.069a5.75,5.75,0,1,0,0-11.5H26.1a5.75,5.75,0,0,0,0,11.5h4.069a61.73,61.73,0,0,1,18.946,42.97H36.734v-.173a6.063,6.063,0,0,0-12.125,0V67.9a6.063,6.063,0,1,0,12.125,0v-.172H49.157V98.776a29.287,29.287,0,0,0,29.2,29.245H78.4a29.244,29.244,0,0,0,29.244-29.245V57.636A19.76,19.76,0,0,0,101.558,43.3ZM87.123,41.224a16.421,16.421,0,0,1,17.023,16.412v36.5a16.423,16.423,0,1,1-32.845,0V58.071C71.3,49.092,78.4,41.534,87.123,41.224ZM23.854,5.729a2.252,2.252,0,0,1,2.25-2.25h68.25a2.25,2.25,0,0,1,0,4.5H26.1A2.252,2.252,0,0,1,23.854,5.729ZM33.234,67.9a2.563,2.563,0,1,1-5.125,0V54.276a2.563,2.563,0,0,1,5.125,0Zm3.5-3.672v-6.28H49.157v6.28Zm66,43a25.788,25.788,0,0,1-24.332,17.3h-.04a25.782,25.782,0,0,1-25.7-25.745V55.905A65.274,65.274,0,0,0,35.11,11.479H85.348A65.274,65.274,0,0,0,67.8,55.905V94.14a19.914,19.914,0,0,0,34.933,13.085Z"/>
<path  fill="current" stroke="current" stroke-width="2" d="M87.724,104.063a9.934,9.934,0,0,0,9.922-9.923V57.635A9.955,9.955,0,0,0,94.5,50.391a9.85,9.85,0,0,0-7.449-2.655A10.1,10.1,0,0,0,77.8,57.923V94.14A9.934,9.934,0,0,0,87.724,104.063ZM81.3,64.9H94.146v3.411H81.3Zm12.845,6.911v8.151H81.3V71.812Zm0,15.063H81.3V83.463H94.146Zm-6.422,13.688A6.43,6.43,0,0,1,81.3,94.14V90.375H94.146V94.14A6.429,6.429,0,0,1,87.724,100.563Zm-.443-49.335a6.491,6.491,0,0,1,6.865,6.407V61.4H81.3V57.923A6.592,6.592,0,0,1,87.281,51.228Z"/></g></svg>
